<mxfile host="app.diagrams.net" modified="2021-09-03T03:33:12.077Z" agent="5.0 (Windows NT 10.0; Win64; x64) AppleWebKit/537.36 (KHTML, like Gecko) Chrome/93.0.4577.63 Safari/537.36" etag="PvpozDhAKIeEE3-1Q0oH" version="15.0.6" type="github">
  <diagram id="sevPlltLLz7Z8HkJldAF" name="Page-1">
    <mxGraphModel dx="609" dy="682" grid="1" gridSize="10" guides="1" tooltips="1" connect="1" arrows="1" fold="1" page="1" pageScale="1" pageWidth="827" pageHeight="1169" math="0" shadow="0">
      <root>
        <mxCell id="0" />
        <mxCell id="1" parent="0" />
        <mxCell id="sGbFlXfkNCDVuGAzp-bi-3" style="edgeStyle=orthogonalEdgeStyle;rounded=0;orthogonalLoop=1;jettySize=auto;html=1;exitX=0.5;exitY=1;exitDx=0;exitDy=0;entryX=0.5;entryY=0;entryDx=0;entryDy=0;" edge="1" parent="1" source="sGbFlXfkNCDVuGAzp-bi-1" target="sGbFlXfkNCDVuGAzp-bi-2">
          <mxGeometry relative="1" as="geometry" />
        </mxCell>
        <mxCell id="sGbFlXfkNCDVuGAzp-bi-1" value="&lt;font style=&quot;font-size: 14px&quot;&gt;开始&lt;/font&gt;" style="rounded=1;whiteSpace=wrap;html=1;" vertex="1" parent="1">
          <mxGeometry x="170" y="150" width="120" height="50" as="geometry" />
        </mxCell>
        <mxCell id="sGbFlXfkNCDVuGAzp-bi-6" style="edgeStyle=orthogonalEdgeStyle;rounded=0;orthogonalLoop=1;jettySize=auto;html=1;exitX=0.5;exitY=1;exitDx=0;exitDy=0;" edge="1" parent="1" source="sGbFlXfkNCDVuGAzp-bi-2" target="sGbFlXfkNCDVuGAzp-bi-4">
          <mxGeometry relative="1" as="geometry" />
        </mxCell>
        <mxCell id="sGbFlXfkNCDVuGAzp-bi-2" value="&lt;font style=&quot;font-size: 14px&quot;&gt;进入登录界面&lt;/font&gt;" style="rounded=0;whiteSpace=wrap;html=1;" vertex="1" parent="1">
          <mxGeometry x="170" y="250" width="120" height="60" as="geometry" />
        </mxCell>
        <mxCell id="sGbFlXfkNCDVuGAzp-bi-8" style="edgeStyle=orthogonalEdgeStyle;rounded=0;orthogonalLoop=1;jettySize=auto;html=1;exitX=0.5;exitY=1;exitDx=0;exitDy=0;" edge="1" parent="1" source="sGbFlXfkNCDVuGAzp-bi-4" target="sGbFlXfkNCDVuGAzp-bi-7">
          <mxGeometry relative="1" as="geometry" />
        </mxCell>
        <mxCell id="sGbFlXfkNCDVuGAzp-bi-4" value="&lt;font style=&quot;font-size: 14px&quot;&gt;输入账号/密码&lt;/font&gt;" style="rounded=0;whiteSpace=wrap;html=1;" vertex="1" parent="1">
          <mxGeometry x="170" y="350" width="120" height="60" as="geometry" />
        </mxCell>
        <mxCell id="sGbFlXfkNCDVuGAzp-bi-10" value="否" style="edgeStyle=orthogonalEdgeStyle;rounded=0;orthogonalLoop=1;jettySize=auto;html=1;exitX=0.5;exitY=1;exitDx=0;exitDy=0;entryX=0.5;entryY=0;entryDx=0;entryDy=0;" edge="1" parent="1" source="sGbFlXfkNCDVuGAzp-bi-7" target="sGbFlXfkNCDVuGAzp-bi-9">
          <mxGeometry relative="1" as="geometry" />
        </mxCell>
        <mxCell id="sGbFlXfkNCDVuGAzp-bi-19" value="是" style="edgeStyle=orthogonalEdgeStyle;rounded=0;orthogonalLoop=1;jettySize=auto;html=1;exitX=1;exitY=0.5;exitDx=0;exitDy=0;entryX=1;entryY=0.5;entryDx=0;entryDy=0;" edge="1" parent="1" source="sGbFlXfkNCDVuGAzp-bi-7" target="sGbFlXfkNCDVuGAzp-bi-4">
          <mxGeometry relative="1" as="geometry" />
        </mxCell>
        <mxCell id="sGbFlXfkNCDVuGAzp-bi-7" value="&lt;font style=&quot;font-size: 14px&quot;&gt;输入信息格式是否存在问题&lt;/font&gt;" style="rhombus;whiteSpace=wrap;html=1;" vertex="1" parent="1">
          <mxGeometry x="152.5" y="460" width="155" height="80" as="geometry" />
        </mxCell>
        <mxCell id="sGbFlXfkNCDVuGAzp-bi-12" style="edgeStyle=orthogonalEdgeStyle;rounded=0;orthogonalLoop=1;jettySize=auto;html=1;exitX=0.5;exitY=1;exitDx=0;exitDy=0;entryX=0.5;entryY=0;entryDx=0;entryDy=0;" edge="1" parent="1" source="sGbFlXfkNCDVuGAzp-bi-9" target="sGbFlXfkNCDVuGAzp-bi-11">
          <mxGeometry relative="1" as="geometry" />
        </mxCell>
        <mxCell id="sGbFlXfkNCDVuGAzp-bi-9" value="&lt;span style=&quot;font-size: 14px&quot;&gt;将数据提交到后端&lt;/span&gt;" style="rounded=0;whiteSpace=wrap;html=1;" vertex="1" parent="1">
          <mxGeometry x="170" y="600" width="120" height="60" as="geometry" />
        </mxCell>
        <mxCell id="sGbFlXfkNCDVuGAzp-bi-14" value="是" style="edgeStyle=orthogonalEdgeStyle;rounded=0;orthogonalLoop=1;jettySize=auto;html=1;exitX=0.5;exitY=1;exitDx=0;exitDy=0;" edge="1" parent="1" source="sGbFlXfkNCDVuGAzp-bi-11" target="sGbFlXfkNCDVuGAzp-bi-13">
          <mxGeometry relative="1" as="geometry" />
        </mxCell>
        <mxCell id="sGbFlXfkNCDVuGAzp-bi-17" style="edgeStyle=orthogonalEdgeStyle;rounded=0;orthogonalLoop=1;jettySize=auto;html=1;exitX=1;exitY=0.5;exitDx=0;exitDy=0;entryX=1;entryY=0.5;entryDx=0;entryDy=0;" edge="1" parent="1" source="sGbFlXfkNCDVuGAzp-bi-11" target="sGbFlXfkNCDVuGAzp-bi-4">
          <mxGeometry relative="1" as="geometry" />
        </mxCell>
        <mxCell id="sGbFlXfkNCDVuGAzp-bi-18" value="否" style="edgeLabel;html=1;align=center;verticalAlign=middle;resizable=0;points=[];" vertex="1" connectable="0" parent="sGbFlXfkNCDVuGAzp-bi-17">
          <mxGeometry x="-0.1381" y="-2" relative="1" as="geometry">
            <mxPoint as="offset" />
          </mxGeometry>
        </mxCell>
        <mxCell id="sGbFlXfkNCDVuGAzp-bi-11" value="&lt;font style=&quot;font-size: 14px&quot;&gt;账号密码是否存和对应&lt;/font&gt;" style="rhombus;whiteSpace=wrap;html=1;" vertex="1" parent="1">
          <mxGeometry x="155" y="700" width="150" height="90" as="geometry" />
        </mxCell>
        <mxCell id="sGbFlXfkNCDVuGAzp-bi-16" style="edgeStyle=orthogonalEdgeStyle;rounded=0;orthogonalLoop=1;jettySize=auto;html=1;exitX=0.5;exitY=1;exitDx=0;exitDy=0;" edge="1" parent="1" source="sGbFlXfkNCDVuGAzp-bi-13" target="sGbFlXfkNCDVuGAzp-bi-15">
          <mxGeometry relative="1" as="geometry" />
        </mxCell>
        <mxCell id="sGbFlXfkNCDVuGAzp-bi-13" value="&lt;font style=&quot;font-size: 14px&quot;&gt;进入系统&lt;/font&gt;" style="rounded=0;whiteSpace=wrap;html=1;" vertex="1" parent="1">
          <mxGeometry x="170" y="840" width="120" height="60" as="geometry" />
        </mxCell>
        <mxCell id="sGbFlXfkNCDVuGAzp-bi-15" value="&lt;font style=&quot;font-size: 14px&quot;&gt;结束&lt;/font&gt;" style="rounded=1;whiteSpace=wrap;html=1;" vertex="1" parent="1">
          <mxGeometry x="170" y="950" width="120" height="60" as="geometry" />
        </mxCell>
        <mxCell id="sGbFlXfkNCDVuGAzp-bi-23" style="edgeStyle=orthogonalEdgeStyle;rounded=0;orthogonalLoop=1;jettySize=auto;html=1;exitX=0.5;exitY=1;exitDx=0;exitDy=0;" edge="1" parent="1" source="sGbFlXfkNCDVuGAzp-bi-21" target="sGbFlXfkNCDVuGAzp-bi-22">
          <mxGeometry relative="1" as="geometry" />
        </mxCell>
        <mxCell id="sGbFlXfkNCDVuGAzp-bi-21" value="&lt;font style=&quot;font-size: 14px&quot;&gt;开始&lt;/font&gt;" style="rounded=1;whiteSpace=wrap;html=1;" vertex="1" parent="1">
          <mxGeometry x="600" y="370" width="120" height="60" as="geometry" />
        </mxCell>
        <mxCell id="sGbFlXfkNCDVuGAzp-bi-25" style="edgeStyle=orthogonalEdgeStyle;rounded=0;orthogonalLoop=1;jettySize=auto;html=1;exitX=0.5;exitY=1;exitDx=0;exitDy=0;" edge="1" parent="1" source="sGbFlXfkNCDVuGAzp-bi-22" target="sGbFlXfkNCDVuGAzp-bi-24">
          <mxGeometry relative="1" as="geometry" />
        </mxCell>
        <mxCell id="sGbFlXfkNCDVuGAzp-bi-22" value="&lt;font style=&quot;font-size: 14px&quot;&gt;投资人进入项目列表页&lt;/font&gt;" style="rounded=0;whiteSpace=wrap;html=1;fontSize=14;" vertex="1" parent="1">
          <mxGeometry x="590" y="490" width="140" height="60" as="geometry" />
        </mxCell>
        <mxCell id="sGbFlXfkNCDVuGAzp-bi-27" style="edgeStyle=orthogonalEdgeStyle;rounded=0;orthogonalLoop=1;jettySize=auto;html=1;exitX=0.5;exitY=1;exitDx=0;exitDy=0;" edge="1" parent="1" source="sGbFlXfkNCDVuGAzp-bi-24" target="sGbFlXfkNCDVuGAzp-bi-26">
          <mxGeometry relative="1" as="geometry" />
        </mxCell>
        <mxCell id="sGbFlXfkNCDVuGAzp-bi-24" value="&lt;font style=&quot;font-size: 14px&quot;&gt;输入关键字进行查询&lt;/font&gt;" style="rounded=0;whiteSpace=wrap;html=1;fontSize=14;" vertex="1" parent="1">
          <mxGeometry x="600" y="610" width="120" height="60" as="geometry" />
        </mxCell>
        <mxCell id="sGbFlXfkNCDVuGAzp-bi-29" style="edgeStyle=orthogonalEdgeStyle;rounded=0;orthogonalLoop=1;jettySize=auto;html=1;exitX=0.5;exitY=1;exitDx=0;exitDy=0;entryX=0.5;entryY=0;entryDx=0;entryDy=0;" edge="1" parent="1" source="sGbFlXfkNCDVuGAzp-bi-26" target="sGbFlXfkNCDVuGAzp-bi-28">
          <mxGeometry relative="1" as="geometry" />
        </mxCell>
        <mxCell id="sGbFlXfkNCDVuGAzp-bi-26" value="选择相应的标签过滤信息&lt;span style=&quot;color: rgba(0 , 0 , 0 , 0) ; font-family: monospace ; font-size: 0px&quot;&gt;%3CmxGraphModel%3E%3Croot%3E%3CmxCell%20id%3D%220%22%2F%3E%3CmxCell%20id%3D%221%22%20parent%3D%220%22%2F%3E%3CmxCell%20id%3D%222%22%20value%3D%22%26lt%3Bfont%20style%3D%26quot%3Bfont-size%3A%2014px%26quot%3B%26gt%3B%E8%BE%93%E5%85%A5%E5%85%B3%E9%94%AE%E5%AD%97%E8%BF%9B%E8%A1%8C%E6%9F%A5%E8%AF%A2%26lt%3B%2Ffont%26gt%3B%22%20style%3D%22rounded%3D0%3BwhiteSpace%3Dwrap%3Bhtml%3D1%3BfontSize%3D14%3B%22%20vertex%3D%221%22%20parent%3D%221%22%3E%3CmxGeometry%20x%3D%22600%22%20y%3D%22610%22%20width%3D%22120%22%20height%3D%2260%22%20as%3D%22geometry%22%2F%3E%3C%2FmxCell%3E%3C%2Froot%3E%3C%2FmxGraphModel%3E&lt;/span&gt;" style="rounded=0;whiteSpace=wrap;html=1;fontSize=14;" vertex="1" parent="1">
          <mxGeometry x="600" y="750" width="120" height="60" as="geometry" />
        </mxCell>
        <mxCell id="sGbFlXfkNCDVuGAzp-bi-31" style="edgeStyle=orthogonalEdgeStyle;rounded=0;orthogonalLoop=1;jettySize=auto;html=1;exitX=0.5;exitY=1;exitDx=0;exitDy=0;entryX=0.5;entryY=0;entryDx=0;entryDy=0;" edge="1" parent="1" source="sGbFlXfkNCDVuGAzp-bi-28" target="sGbFlXfkNCDVuGAzp-bi-30">
          <mxGeometry relative="1" as="geometry" />
        </mxCell>
        <mxCell id="sGbFlXfkNCDVuGAzp-bi-28" value="查看详细信息" style="rounded=0;whiteSpace=wrap;html=1;fontSize=14;" vertex="1" parent="1">
          <mxGeometry x="600" y="860" width="120" height="60" as="geometry" />
        </mxCell>
        <mxCell id="sGbFlXfkNCDVuGAzp-bi-30" value="&lt;font style=&quot;font-size: 14px&quot;&gt;结束&lt;/font&gt;" style="rounded=1;whiteSpace=wrap;html=1;" vertex="1" parent="1">
          <mxGeometry x="600" y="990" width="120" height="60" as="geometry" />
        </mxCell>
        <mxCell id="sGbFlXfkNCDVuGAzp-bi-38" style="edgeStyle=orthogonalEdgeStyle;rounded=0;orthogonalLoop=1;jettySize=auto;html=1;exitX=0.5;exitY=1;exitDx=0;exitDy=0;entryX=0.5;entryY=0;entryDx=0;entryDy=0;" edge="1" parent="1" source="sGbFlXfkNCDVuGAzp-bi-32" target="sGbFlXfkNCDVuGAzp-bi-37">
          <mxGeometry relative="1" as="geometry" />
        </mxCell>
        <mxCell id="sGbFlXfkNCDVuGAzp-bi-32" value="&lt;font style=&quot;font-size: 14px&quot;&gt;开始&lt;/font&gt;" style="rounded=1;whiteSpace=wrap;html=1;" vertex="1" parent="1">
          <mxGeometry x="950" y="250" width="120" height="60" as="geometry" />
        </mxCell>
        <mxCell id="sGbFlXfkNCDVuGAzp-bi-39" style="edgeStyle=orthogonalEdgeStyle;rounded=0;orthogonalLoop=1;jettySize=auto;html=1;exitX=0.5;exitY=1;exitDx=0;exitDy=0;" edge="1" parent="1" source="sGbFlXfkNCDVuGAzp-bi-37">
          <mxGeometry relative="1" as="geometry">
            <mxPoint x="1010.1304347826087" y="470" as="targetPoint" />
          </mxGeometry>
        </mxCell>
        <mxCell id="sGbFlXfkNCDVuGAzp-bi-37" value="&lt;font style=&quot;font-size: 14px&quot;&gt;进入项目详细信息页面&lt;/font&gt;" style="rounded=0;whiteSpace=wrap;html=1;" vertex="1" parent="1">
          <mxGeometry x="950" y="360" width="120" height="60" as="geometry" />
        </mxCell>
        <mxCell id="sGbFlXfkNCDVuGAzp-bi-42" value="" style="edgeStyle=orthogonalEdgeStyle;rounded=0;orthogonalLoop=1;jettySize=auto;html=1;" edge="1" parent="1" source="sGbFlXfkNCDVuGAzp-bi-40" target="sGbFlXfkNCDVuGAzp-bi-41">
          <mxGeometry relative="1" as="geometry" />
        </mxCell>
        <mxCell id="sGbFlXfkNCDVuGAzp-bi-40" value="&lt;span style=&quot;font-size: 14px&quot;&gt;输入项目报价及备注信息&lt;/span&gt;" style="rounded=0;whiteSpace=wrap;html=1;" vertex="1" parent="1">
          <mxGeometry x="950" y="470" width="120" height="60" as="geometry" />
        </mxCell>
        <mxCell id="sGbFlXfkNCDVuGAzp-bi-43" style="edgeStyle=orthogonalEdgeStyle;rounded=0;orthogonalLoop=1;jettySize=auto;html=1;exitX=1;exitY=0.5;exitDx=0;exitDy=0;entryX=1;entryY=0.5;entryDx=0;entryDy=0;" edge="1" parent="1" source="sGbFlXfkNCDVuGAzp-bi-41" target="sGbFlXfkNCDVuGAzp-bi-40">
          <mxGeometry relative="1" as="geometry" />
        </mxCell>
        <mxCell id="sGbFlXfkNCDVuGAzp-bi-44" value="是" style="edgeLabel;html=1;align=center;verticalAlign=middle;resizable=0;points=[];" vertex="1" connectable="0" parent="sGbFlXfkNCDVuGAzp-bi-43">
          <mxGeometry x="-0.3821" y="1" relative="1" as="geometry">
            <mxPoint as="offset" />
          </mxGeometry>
        </mxCell>
        <mxCell id="sGbFlXfkNCDVuGAzp-bi-46" value="否" style="edgeStyle=orthogonalEdgeStyle;rounded=0;orthogonalLoop=1;jettySize=auto;html=1;exitX=0.5;exitY=1;exitDx=0;exitDy=0;" edge="1" parent="1" source="sGbFlXfkNCDVuGAzp-bi-41" target="sGbFlXfkNCDVuGAzp-bi-45">
          <mxGeometry relative="1" as="geometry" />
        </mxCell>
        <mxCell id="sGbFlXfkNCDVuGAzp-bi-41" value="&lt;font style=&quot;font-size: 14px&quot;&gt;输入格式是否有问题&lt;/font&gt;" style="rhombus;whiteSpace=wrap;html=1;rounded=0;" vertex="1" parent="1">
          <mxGeometry x="917.5" y="570" width="185" height="60" as="geometry" />
        </mxCell>
        <mxCell id="sGbFlXfkNCDVuGAzp-bi-49" style="edgeStyle=orthogonalEdgeStyle;rounded=0;orthogonalLoop=1;jettySize=auto;html=1;exitX=0.5;exitY=1;exitDx=0;exitDy=0;" edge="1" parent="1" source="sGbFlXfkNCDVuGAzp-bi-45">
          <mxGeometry relative="1" as="geometry">
            <mxPoint x="1010.1304347826087" y="790" as="targetPoint" />
          </mxGeometry>
        </mxCell>
        <mxCell id="sGbFlXfkNCDVuGAzp-bi-45" value="&lt;font style=&quot;font-size: 14px&quot;&gt;提交投资信息&lt;/font&gt;" style="rounded=0;whiteSpace=wrap;html=1;" vertex="1" parent="1">
          <mxGeometry x="950" y="680" width="120" height="60" as="geometry" />
        </mxCell>
        <mxCell id="sGbFlXfkNCDVuGAzp-bi-48" value="&lt;font style=&quot;font-size: 14px&quot;&gt;结束&lt;/font&gt;" style="rounded=1;whiteSpace=wrap;html=1;" vertex="1" parent="1">
          <mxGeometry x="950" y="790" width="120" height="60" as="geometry" />
        </mxCell>
        <mxCell id="sGbFlXfkNCDVuGAzp-bi-52" style="edgeStyle=orthogonalEdgeStyle;rounded=0;orthogonalLoop=1;jettySize=auto;html=1;exitX=0.5;exitY=1;exitDx=0;exitDy=0;entryX=0.5;entryY=0;entryDx=0;entryDy=0;" edge="1" parent="1" source="sGbFlXfkNCDVuGAzp-bi-50" target="sGbFlXfkNCDVuGAzp-bi-51">
          <mxGeometry relative="1" as="geometry" />
        </mxCell>
        <mxCell id="sGbFlXfkNCDVuGAzp-bi-50" value="&lt;font style=&quot;font-size: 14px&quot;&gt;开始&lt;/font&gt;" style="rounded=1;whiteSpace=wrap;html=1;" vertex="1" parent="1">
          <mxGeometry x="1370" y="240" width="120" height="60" as="geometry" />
        </mxCell>
        <mxCell id="sGbFlXfkNCDVuGAzp-bi-54" style="edgeStyle=orthogonalEdgeStyle;rounded=0;orthogonalLoop=1;jettySize=auto;html=1;exitX=0.5;exitY=1;exitDx=0;exitDy=0;" edge="1" parent="1" source="sGbFlXfkNCDVuGAzp-bi-51" target="sGbFlXfkNCDVuGAzp-bi-53">
          <mxGeometry relative="1" as="geometry" />
        </mxCell>
        <mxCell id="sGbFlXfkNCDVuGAzp-bi-51" value="投资人进入“寻找团队”" style="rounded=0;whiteSpace=wrap;html=1;fontSize=14;" vertex="1" parent="1">
          <mxGeometry x="1370" y="360" width="120" height="50" as="geometry" />
        </mxCell>
        <mxCell id="sGbFlXfkNCDVuGAzp-bi-56" style="edgeStyle=orthogonalEdgeStyle;rounded=0;orthogonalLoop=1;jettySize=auto;html=1;exitX=0.5;exitY=1;exitDx=0;exitDy=0;" edge="1" parent="1" source="sGbFlXfkNCDVuGAzp-bi-53" target="sGbFlXfkNCDVuGAzp-bi-55">
          <mxGeometry relative="1" as="geometry" />
        </mxCell>
        <mxCell id="sGbFlXfkNCDVuGAzp-bi-53" value="&lt;font style=&quot;font-size: 14px&quot;&gt;查看团队列表&lt;/font&gt;" style="rounded=0;whiteSpace=wrap;html=1;" vertex="1" parent="1">
          <mxGeometry x="1370" y="460" width="120" height="60" as="geometry" />
        </mxCell>
        <mxCell id="sGbFlXfkNCDVuGAzp-bi-58" style="edgeStyle=orthogonalEdgeStyle;rounded=0;orthogonalLoop=1;jettySize=auto;html=1;entryX=0.5;entryY=0;entryDx=0;entryDy=0;" edge="1" parent="1" source="sGbFlXfkNCDVuGAzp-bi-55" target="sGbFlXfkNCDVuGAzp-bi-57">
          <mxGeometry relative="1" as="geometry" />
        </mxCell>
        <mxCell id="sGbFlXfkNCDVuGAzp-bi-55" value="&lt;font style=&quot;font-size: 14px&quot;&gt;查看某团队详细信息&lt;/font&gt;" style="rounded=0;whiteSpace=wrap;html=1;" vertex="1" parent="1">
          <mxGeometry x="1370" y="555" width="120" height="55" as="geometry" />
        </mxCell>
        <mxCell id="sGbFlXfkNCDVuGAzp-bi-62" style="edgeStyle=orthogonalEdgeStyle;rounded=0;orthogonalLoop=1;jettySize=auto;html=1;exitX=0.5;exitY=1;exitDx=0;exitDy=0;" edge="1" parent="1" source="sGbFlXfkNCDVuGAzp-bi-57" target="sGbFlXfkNCDVuGAzp-bi-61">
          <mxGeometry relative="1" as="geometry" />
        </mxCell>
        <mxCell id="sGbFlXfkNCDVuGAzp-bi-57" value="&lt;font style=&quot;font-size: 14px&quot;&gt;对该团队进行团队孵化&lt;/font&gt;" style="rounded=0;whiteSpace=wrap;html=1;" vertex="1" parent="1">
          <mxGeometry x="1370" y="660" width="120" height="60" as="geometry" />
        </mxCell>
        <mxCell id="sGbFlXfkNCDVuGAzp-bi-61" value="结束" style="rounded=1;whiteSpace=wrap;html=1;" vertex="1" parent="1">
          <mxGeometry x="1370" y="770" width="120" height="60" as="geometry" />
        </mxCell>
        <mxCell id="sGbFlXfkNCDVuGAzp-bi-65" style="edgeStyle=orthogonalEdgeStyle;rounded=0;orthogonalLoop=1;jettySize=auto;html=1;exitX=0.5;exitY=1;exitDx=0;exitDy=0;entryX=0.5;entryY=0;entryDx=0;entryDy=0;" edge="1" parent="1" source="sGbFlXfkNCDVuGAzp-bi-63" target="sGbFlXfkNCDVuGAzp-bi-64">
          <mxGeometry relative="1" as="geometry" />
        </mxCell>
        <mxCell id="sGbFlXfkNCDVuGAzp-bi-63" value="开始" style="rounded=1;whiteSpace=wrap;html=1;" vertex="1" parent="1">
          <mxGeometry x="1700" y="240" width="120" height="60" as="geometry" />
        </mxCell>
        <mxCell id="sGbFlXfkNCDVuGAzp-bi-67" style="edgeStyle=orthogonalEdgeStyle;rounded=0;orthogonalLoop=1;jettySize=auto;html=1;exitX=0.5;exitY=1;exitDx=0;exitDy=0;entryX=0.5;entryY=0;entryDx=0;entryDy=0;" edge="1" parent="1" source="sGbFlXfkNCDVuGAzp-bi-64" target="sGbFlXfkNCDVuGAzp-bi-66">
          <mxGeometry relative="1" as="geometry" />
        </mxCell>
        <mxCell id="sGbFlXfkNCDVuGAzp-bi-64" value="进入某团队详细信息页面" style="rounded=0;whiteSpace=wrap;html=1;" vertex="1" parent="1">
          <mxGeometry x="1700" y="360" width="120" height="60" as="geometry" />
        </mxCell>
        <mxCell id="sGbFlXfkNCDVuGAzp-bi-72" value="" style="edgeStyle=orthogonalEdgeStyle;rounded=0;orthogonalLoop=1;jettySize=auto;html=1;" edge="1" parent="1" source="sGbFlXfkNCDVuGAzp-bi-66" target="sGbFlXfkNCDVuGAzp-bi-71">
          <mxGeometry relative="1" as="geometry" />
        </mxCell>
        <mxCell id="sGbFlXfkNCDVuGAzp-bi-66" value="选择委托项目" style="rounded=0;whiteSpace=wrap;html=1;" vertex="1" parent="1">
          <mxGeometry x="1700" y="470" width="120" height="60" as="geometry" />
        </mxCell>
        <mxCell id="sGbFlXfkNCDVuGAzp-bi-74" value="选择新增项目" style="edgeStyle=orthogonalEdgeStyle;rounded=0;orthogonalLoop=1;jettySize=auto;html=1;exitX=0.5;exitY=1;exitDx=0;exitDy=0;" edge="1" parent="1" source="sGbFlXfkNCDVuGAzp-bi-71" target="sGbFlXfkNCDVuGAzp-bi-73">
          <mxGeometry relative="1" as="geometry" />
        </mxCell>
        <mxCell id="sGbFlXfkNCDVuGAzp-bi-76" value="选择从已有项目中获取" style="edgeStyle=orthogonalEdgeStyle;rounded=0;orthogonalLoop=1;jettySize=auto;html=1;exitX=1;exitY=0.5;exitDx=0;exitDy=0;" edge="1" parent="1" source="sGbFlXfkNCDVuGAzp-bi-71" target="sGbFlXfkNCDVuGAzp-bi-75">
          <mxGeometry relative="1" as="geometry" />
        </mxCell>
        <mxCell id="sGbFlXfkNCDVuGAzp-bi-71" value="选择项目生成方式" style="rhombus;whiteSpace=wrap;html=1;rounded=0;" vertex="1" parent="1">
          <mxGeometry x="1692.5" y="590" width="135" height="70" as="geometry" />
        </mxCell>
        <mxCell id="sGbFlXfkNCDVuGAzp-bi-78" style="edgeStyle=orthogonalEdgeStyle;rounded=0;orthogonalLoop=1;jettySize=auto;html=1;exitX=0.5;exitY=1;exitDx=0;exitDy=0;" edge="1" parent="1" source="sGbFlXfkNCDVuGAzp-bi-73" target="sGbFlXfkNCDVuGAzp-bi-77">
          <mxGeometry relative="1" as="geometry" />
        </mxCell>
        <mxCell id="sGbFlXfkNCDVuGAzp-bi-73" value="新增项目操作" style="rounded=0;whiteSpace=wrap;html=1;" vertex="1" parent="1">
          <mxGeometry x="1700" y="710" width="120" height="60" as="geometry" />
        </mxCell>
        <mxCell id="sGbFlXfkNCDVuGAzp-bi-79" style="edgeStyle=orthogonalEdgeStyle;rounded=0;orthogonalLoop=1;jettySize=auto;html=1;exitX=0.5;exitY=1;exitDx=0;exitDy=0;entryX=1;entryY=0.5;entryDx=0;entryDy=0;" edge="1" parent="1" source="sGbFlXfkNCDVuGAzp-bi-75" target="sGbFlXfkNCDVuGAzp-bi-77">
          <mxGeometry relative="1" as="geometry" />
        </mxCell>
        <mxCell id="sGbFlXfkNCDVuGAzp-bi-75" value="选择相应项目" style="rounded=0;whiteSpace=wrap;html=1;" vertex="1" parent="1">
          <mxGeometry x="1880" y="710" width="120" height="60" as="geometry" />
        </mxCell>
        <mxCell id="sGbFlXfkNCDVuGAzp-bi-84" style="edgeStyle=orthogonalEdgeStyle;rounded=0;orthogonalLoop=1;jettySize=auto;html=1;exitX=0.5;exitY=1;exitDx=0;exitDy=0;entryX=0.5;entryY=0;entryDx=0;entryDy=0;" edge="1" parent="1" source="sGbFlXfkNCDVuGAzp-bi-77" target="sGbFlXfkNCDVuGAzp-bi-82">
          <mxGeometry relative="1" as="geometry" />
        </mxCell>
        <mxCell id="sGbFlXfkNCDVuGAzp-bi-77" value="输入报价等信息" style="rounded=0;whiteSpace=wrap;html=1;" vertex="1" parent="1">
          <mxGeometry x="1700" y="840" width="120" height="60" as="geometry" />
        </mxCell>
        <mxCell id="sGbFlXfkNCDVuGAzp-bi-87" style="edgeStyle=orthogonalEdgeStyle;rounded=0;orthogonalLoop=1;jettySize=auto;html=1;entryX=0;entryY=0.5;entryDx=0;entryDy=0;" edge="1" parent="1" source="sGbFlXfkNCDVuGAzp-bi-82" target="sGbFlXfkNCDVuGAzp-bi-77">
          <mxGeometry relative="1" as="geometry" />
        </mxCell>
        <mxCell id="sGbFlXfkNCDVuGAzp-bi-88" value="格式错误" style="edgeLabel;html=1;align=center;verticalAlign=middle;resizable=0;points=[];" vertex="1" connectable="0" parent="sGbFlXfkNCDVuGAzp-bi-87">
          <mxGeometry x="0.2007" y="-2" relative="1" as="geometry">
            <mxPoint as="offset" />
          </mxGeometry>
        </mxCell>
        <mxCell id="sGbFlXfkNCDVuGAzp-bi-90" value="格式正确" style="edgeStyle=orthogonalEdgeStyle;rounded=0;orthogonalLoop=1;jettySize=auto;html=1;exitX=0.5;exitY=1;exitDx=0;exitDy=0;entryX=0.5;entryY=0;entryDx=0;entryDy=0;" edge="1" parent="1" source="sGbFlXfkNCDVuGAzp-bi-82">
          <mxGeometry relative="1" as="geometry">
            <mxPoint x="1760" y="1080" as="targetPoint" />
          </mxGeometry>
        </mxCell>
        <mxCell id="sGbFlXfkNCDVuGAzp-bi-82" value="验证输入信息格式" style="rhombus;whiteSpace=wrap;html=1;" vertex="1" parent="1">
          <mxGeometry x="1695" y="960" width="130" height="80" as="geometry" />
        </mxCell>
        <mxCell id="sGbFlXfkNCDVuGAzp-bi-93" style="edgeStyle=orthogonalEdgeStyle;rounded=0;orthogonalLoop=1;jettySize=auto;html=1;exitX=0.5;exitY=1;exitDx=0;exitDy=0;entryX=0.5;entryY=0;entryDx=0;entryDy=0;" edge="1" parent="1" source="sGbFlXfkNCDVuGAzp-bi-91" target="sGbFlXfkNCDVuGAzp-bi-92">
          <mxGeometry relative="1" as="geometry" />
        </mxCell>
        <mxCell id="sGbFlXfkNCDVuGAzp-bi-91" value="点击按钮，完成委托" style="rounded=0;whiteSpace=wrap;html=1;" vertex="1" parent="1">
          <mxGeometry x="1700" y="1080" width="120" height="60" as="geometry" />
        </mxCell>
        <mxCell id="sGbFlXfkNCDVuGAzp-bi-92" value="结束" style="rounded=1;whiteSpace=wrap;html=1;" vertex="1" parent="1">
          <mxGeometry x="1700" y="1200" width="120" height="60" as="geometry" />
        </mxCell>
      </root>
    </mxGraphModel>
  </diagram>
</mxfile>
